<?xml version="1.0" standalone="no"?>
<!DOCTYPE svg PUBLIC "-//W3C//DTD SVG 20010904//EN"
 "http://www.w3.org/TR/2001/REC-SVG-20010904/DTD/svg10.dtd">
<svg version="1.0" xmlns="http://www.w3.org/2000/svg"
 width="256.000000pt" height="256.000000pt" viewBox="0 0 256.000000 256.000000"
 preserveAspectRatio="xMidYMid meet">
<metadata>
Created by potrace 1.11, written by Peter Selinger 2001-2013
</metadata>
<g transform="translate(0.000000,256.000000) scale(0.100000,-0.100000)"
fill="#000000" stroke="none">
<path d="M1085 2545 c-167 -31 -265 -63 -399 -133 -291 -150 -523 -427 -625
-745 -144 -452 -25 -944 311 -1286 182 -185 398 -300 669 -358 116 -24 362
-24 478 0 339 72 608 245 800 514 365 510 307 1207 -136 1646 -207 205 -414
309 -718 363 -97 17 -285 17 -380 -1z m303 -814 c83 -29 129 -58 182 -118 79
-89 120 -215 120 -373 0 -287 -142 -482 -380 -519 -36 -6 -136 -11 -222 -11
l-158 0 0 518 c0 285 3 522 8 526 4 5 93 6 197 4 162 -4 199 -8 253 -27z"/>
<path d="M1070 1235 l0 -415 93 0 c194 0 300 64 360 217 41 105 37 321 -7 418
-63 139 -164 195 -353 195 l-93 0 0 -415z"/>
</g>
</svg>
